<?xml version="1.0" encoding="utf-8"?>
<!-- Generator: Adobe Illustrator 16.0.0, SVG Export Plug-In . SVG Version: 6.00 Build 0)  -->
<!DOCTYPE svg PUBLIC "-//W3C//DTD SVG 1.1//EN" "http://www.w3.org/Graphics/SVG/1.1/DTD/svg11.dtd">
<svg version="1.1" id="Layer_1" xmlns="http://www.w3.org/2000/svg" xmlns:xlink="http://www.w3.org/1999/xlink" x="0px" y="0px"
	 width="283.46px" height="283.46px" viewBox="0 0 283.46 283.46" enable-background="new 0 0 283.46 283.46" xml:space="preserve">
<g id="Voronoi">
	<line fill="none" stroke="#231F20" stroke-miterlimit="10" x1="65" y1="0" x2="127.28" y2="183.975"/>
	<line fill="none" stroke="#231F20" stroke-miterlimit="10" x1="28.5" y1="283.46" x2="127.28" y2="183.975"/>
	<line fill="none" stroke="#231F20" stroke-miterlimit="10" x1="127.28" y1="183.975" x2="226.469" y2="283.458"/>
</g>
<g id="Boundary_circle" display="none">
	<path display="inline" fill="none" stroke="#939393" stroke-width="0.25" stroke-miterlimit="10" d="M443.982,283.458
		c0-88.651-71.868-160.523-160.521-160.523c-88.654,0-160.523,71.872-160.523,160.523c0,88.656,71.869,160.525,160.523,160.525
		C372.114,443.984,443.982,372.115,443.982,283.458z"/>
	
		<circle display="inline" fill="none" stroke="#939393" stroke-width="0.25" stroke-miterlimit="10" cx="0" cy="283.459" r="120.131"/>
	<circle display="inline" fill="none" stroke="#FF0000" stroke-width="0.25" stroke-miterlimit="10" cx="283.46" cy="0" r="204"/>
	<circle display="inline" fill="none" stroke="#FF0000" stroke-width="0.25" stroke-miterlimit="10" cx="0" cy="0" r="216"/>
</g>
<g id="Circle_intersect_boundary">
	<circle fill="none" stroke="#F9B9D1" stroke-width="0.25" stroke-miterlimit="10" cx="226.469" cy="283.459" r="127.297"/>
	<path fill="none" stroke="#FF0000" stroke-width="0.25" stroke-miterlimit="10" d="M265.296-0.001
		c0-110.617-89.678-200.296-200.296-200.296c-110.618,0-200.297,89.68-200.297,200.296c0,110.624,89.679,200.297,200.297,200.297
		C175.619,200.296,265.296,110.623,265.296-0.001z"/>
	<circle fill="none" stroke="#F9B9D1" stroke-width="0.25" stroke-miterlimit="10" cx="28.5" cy="283.46" r="102.351"/>
</g>
<g id="Layer_9" display="none">
	<polyline display="inline" fill="none" stroke="#F9F903" stroke-width="0.25" stroke-miterlimit="10" points="84.826,198.425 
		99.019,212.436 113.386,226.615 	"/>
	
		<line display="inline" fill="none" stroke="#03FF2D" stroke-width="0.25" stroke-miterlimit="10" x1="99.019" y1="212.436" x2="96.14" y2="197.89"/>
	
		<line display="inline" fill="none" stroke="#03FF2D" stroke-width="0.25" stroke-miterlimit="10" x1="99.019" y1="212.436" x2="114.803" y2="222.294"/>
	
		<line display="inline" fill="none" stroke="#06ACFF" stroke-width="0.25" stroke-miterlimit="10" x1="99.019" y1="212.436" x2="95.689" y2="215.791"/>
	
		<line display="inline" fill="none" stroke="#06ACFF" stroke-width="0.25" stroke-miterlimit="10" x1="99.019" y1="212.436" x2="100.614" y2="210.832"/>
	
		<line display="inline" fill="none" stroke="#03FF2D" stroke-width="0.25" stroke-miterlimit="10" x1="60.333" y1="235.501" x2="170.078" y2="170.078"/>
	
		<line display="inline" fill="none" stroke="#03FF2D" stroke-width="0.25" stroke-miterlimit="10" x1="69.046" y1="265.811" x2="131.365" y2="154.274"/>
</g>
<g id="Dekaunay_circle">
	<circle fill="none" stroke="#939393" stroke-width="0.25" stroke-miterlimit="10" cx="127.28" cy="183.975" r="44.837"/>
</g>
<g id="Layer_7" display="none">
	<path display="inline" opacity="0.1" fill="#231F20" enable-background="new    " d="M155.898,149.46
		C193.112,110.657,216,58.01,216,0c0-60.714-25.06-115.567-65.388-154.808C107.055-117.396,79.46-61.923,79.46,0
		c0,54.105,21.069,103.284,55.444,139.796C142.798,141.149,149.989,144.556,155.898,149.46z"/>
</g>
<g id="Potential" display="none">
	<polygon display="inline" opacity="0.1" fill="#20FF00" enable-background="new    " points="0,0 0,120.334 152.205,156.162 
		283.46,159.155 283.46,0 	"/>
</g>
<g id="Points">
	<circle fill="#231F20" cx="85.04" cy="198.424" r="1.417"/>
	<circle fill="#231F20" cx="113.386" cy="226.771" r="1.417"/>
	<circle fill="#231F20" cx="170.08" cy="170.079" r="1.417"/>
</g>
<g id="Labels" display="none">
	<text transform="matrix(1 0 0 1 4.0005 8.9995)" display="inline" font-family="'MyriadPro-Regular'" font-size="7">P1</text>
	<text transform="matrix(1 0 0 1 53.5 7.4995)" display="inline" font-family="'MyriadPro-Regular'" font-size="7">Q1</text>
	<text transform="matrix(1 0 0 1 271.9995 7.4995)" display="inline" font-family="'MyriadPro-Regular'" font-size="7">P2</text>
	<text transform="matrix(1 0 0 1 271.9995 277.4995)" display="inline" font-family="'MyriadPro-Regular'" font-size="7">P3</text>
	<text transform="matrix(1 0 0 1 227.9995 277.4995)" display="inline" font-family="'MyriadPro-Regular'" font-size="7">Q2</text>
	<text transform="matrix(1 0 0 1 22.0005 277.4995)" display="inline" font-family="'MyriadPro-Regular'" font-size="7">Q3</text>
	<text transform="matrix(1 0 0 1 5.5005 277.4995)" display="inline" font-family="'MyriadPro-Regular'" font-size="7">P4</text>
	<text transform="matrix(1 0 0 1 78 192.4995)" display="inline" font-family="'MyriadPro-Regular'" font-size="7">A1</text>
	<text transform="matrix(1 0 0 1 173.4995 181.9995)" display="inline" font-family="'MyriadPro-Regular'" font-size="7">A3</text>
	<text transform="matrix(1 0 0 1 112.5 234.9995)" display="inline" font-family="'MyriadPro-Regular'" font-size="7">A2</text>
</g>
</svg>
